STARTFONT 2.1
FONT -Arathnim-blueberry-Regular-R-Normal--16-120-96-96-M-4-ISO10646-1
SIZE 12 96 96
FONTBOUNDINGBOX 5 10 -1 -2
STARTPROPERTIES 21
POINT_SIZE 120
PIXEL_SIZE 16
RESOLUTION_X 96
RESOLUTION_Y 96
FONT_ASCENT 8
FONT_DESCENT 2
AVERAGE_WIDTH 4
SPACING "M"
FOUNDRY "Arathnim"
FAMILY_NAME "blueberry"
CHARSET_REGISTRY "ISO10646"
CHARSET_ENCODING "1"
WEIGHT_NAME "Regular"
SLANT "R"
SETWIDTH_NAME "Normal"
COPYRIGHT "Copyright Arathnim 2016"
_GBDFED_INFO "Edited with gbdfed 1.6."
CAP_HEIGHT 6
DEFAULT_CHAR 0
FACE_NAME "blueberry"
AVG_LOWERCASE_WIDTH 4
ENDPROPERTIES
CHARS 120
STARTCHAR char10254
ENCODING -1
SWIDTH 312 0
DWIDTH 5 0
BBX 3 5 0 0
BITMAP
20
00
80
00
80
ENDCHAR
STARTCHAR spacehackarabic
ENCODING 32
SWIDTH 312 0
DWIDTH 5 0
BBX 0 0 0 0
BITMAP
ENDCHAR
STARTCHAR exclam
ENCODING 33
SWIDTH 312 0
DWIDTH 5 0
BBX 1 7 1 0
BITMAP
80
80
80
80
80
00
80
ENDCHAR
STARTCHAR quotedbl
ENCODING 34
SWIDTH 312 0
DWIDTH 5 0
BBX 4 2 0 5
BITMAP
50
A0
ENDCHAR
STARTCHAR numbersign
ENCODING 35
SWIDTH 312 0
DWIDTH 5 0
BBX 5 5 -1 0
BITMAP
50
F8
50
F8
50
ENDCHAR
STARTCHAR dollar
ENCODING 36
SWIDTH 312 0
DWIDTH 5 0
BBX 5 7 -1 0
BITMAP
20
78
A0
70
28
F0
20
ENDCHAR
STARTCHAR percent
ENCODING 37
SWIDTH 312 0
DWIDTH 5 0
BBX 5 7 -1 0
BITMAP
40
A8
50
20
50
A8
10
ENDCHAR
STARTCHAR ampersand
ENCODING 38
SWIDTH 312 0
DWIDTH 5 0
BBX 5 6 -1 0
BITMAP
60
90
60
A8
90
68
ENDCHAR
STARTCHAR quotesingle
ENCODING 39
SWIDTH 312 0
DWIDTH 5 0
BBX 2 2 1 5
BITMAP
40
80
ENDCHAR
STARTCHAR parenleft
ENCODING 40
SWIDTH 312 0
DWIDTH 5 0
BBX 2 8 1 -1
BITMAP
40
80
80
80
80
80
80
40
ENDCHAR
STARTCHAR parenright
ENCODING 41
SWIDTH 312 0
DWIDTH 5 0
BBX 2 8 0 -1
BITMAP
80
40
40
40
40
40
40
80
ENDCHAR
STARTCHAR asterisk
ENCODING 42
SWIDTH 312 0
DWIDTH 5 0
BBX 3 3 0 5
BITMAP
A0
40
A0
ENDCHAR
STARTCHAR plus
ENCODING 43
SWIDTH 312 0
DWIDTH 5 0
BBX 5 5 -1 0
BITMAP
20
20
F8
20
20
ENDCHAR
STARTCHAR comma
ENCODING 44
SWIDTH 312 0
DWIDTH 5 0
BBX 2 2 0 -1
BITMAP
40
80
ENDCHAR
STARTCHAR hyphen
ENCODING 45
SWIDTH 312 0
DWIDTH 5 0
BBX 5 1 -1 2
BITMAP
F8
ENDCHAR
STARTCHAR period
ENCODING 46
SWIDTH 312 0
DWIDTH 5 0
BBX 1 1 2 0
BITMAP
80
ENDCHAR
STARTCHAR slash
ENCODING 47
SWIDTH 312 0
DWIDTH 5 0
BBX 4 8 0 -1
BITMAP
10
10
20
20
40
40
80
80
ENDCHAR
STARTCHAR zero
ENCODING 48
SWIDTH 312 0
DWIDTH 5 0
BBX 4 6 0 0
BITMAP
60
90
B0
D0
90
60
ENDCHAR
STARTCHAR one
ENCODING 49
SWIDTH 312 0
DWIDTH 5 0
BBX 3 6 0 0
BITMAP
40
C0
40
40
40
E0
ENDCHAR
STARTCHAR two
ENCODING 50
SWIDTH 312 0
DWIDTH 5 0
BBX 4 6 0 0
BITMAP
60
90
10
20
40
F0
ENDCHAR
STARTCHAR three
ENCODING 51
SWIDTH 312 0
DWIDTH 5 0
BBX 4 6 0 0
BITMAP
60
90
20
10
90
60
ENDCHAR
STARTCHAR four
ENCODING 52
SWIDTH 312 0
DWIDTH 5 0
BBX 5 6 -1 0
BITMAP
10
30
50
90
F8
10
ENDCHAR
STARTCHAR five
ENCODING 53
SWIDTH 312 0
DWIDTH 5 0
BBX 4 6 0 0
BITMAP
F0
80
E0
10
90
60
ENDCHAR
STARTCHAR six
ENCODING 54
SWIDTH 312 0
DWIDTH 5 0
BBX 4 6 0 0
BITMAP
60
90
E0
90
90
60
ENDCHAR
STARTCHAR seven
ENCODING 55
SWIDTH 312 0
DWIDTH 5 0
BBX 4 6 0 0
BITMAP
F0
10
20
20
40
40
ENDCHAR
STARTCHAR eight
ENCODING 56
SWIDTH 312 0
DWIDTH 5 0
BBX 4 6 0 0
BITMAP
60
90
60
90
90
60
ENDCHAR
STARTCHAR nine
ENCODING 57
SWIDTH 312 0
DWIDTH 5 0
BBX 4 6 0 0
BITMAP
60
90
90
70
90
60
ENDCHAR
STARTCHAR colon
ENCODING 58
SWIDTH 312 0
DWIDTH 5 0
BBX 1 5 1 0
BITMAP
80
80
00
80
80
ENDCHAR
STARTCHAR semicolon
ENCODING 59
SWIDTH 312 0
DWIDTH 5 0
BBX 2 5 0 0
BITMAP
40
40
00
40
80
ENDCHAR
STARTCHAR less
ENCODING 60
SWIDTH 312 0
DWIDTH 5 0
BBX 3 5 0 0
BITMAP
20
40
80
40
20
ENDCHAR
STARTCHAR equal
ENCODING 61
SWIDTH 312 0
DWIDTH 5 0
BBX 5 3 -1 1
BITMAP
F8
00
F8
ENDCHAR
STARTCHAR greater
ENCODING 62
SWIDTH 312 0
DWIDTH 5 0
BBX 3 5 0 0
BITMAP
80
40
20
40
80
ENDCHAR
STARTCHAR question
ENCODING 63
SWIDTH 312 0
DWIDTH 5 0
BBX 3 6 0 0
BITMAP
40
A0
20
40
00
40
ENDCHAR
STARTCHAR at
ENCODING 64
SWIDTH 312 0
DWIDTH 5 0
BBX 5 6 -1 0
BITMAP
70
A8
D8
B8
80
78
ENDCHAR
STARTCHAR A
ENCODING 65
SWIDTH 312 0
DWIDTH 5 0
BBX 5 6 -1 0
BITMAP
20
20
50
70
88
88
ENDCHAR
STARTCHAR B
ENCODING 66
SWIDTH 312 0
DWIDTH 5 0
BBX 4 6 0 0
BITMAP
E0
90
E0
90
90
E0
ENDCHAR
STARTCHAR C
ENCODING 67
SWIDTH 312 0
DWIDTH 5 0
BBX 4 6 0 0
BITMAP
60
90
80
80
90
60
ENDCHAR
STARTCHAR D
ENCODING 68
SWIDTH 312 0
DWIDTH 5 0
BBX 4 6 0 0
BITMAP
E0
90
90
90
90
E0
ENDCHAR
STARTCHAR E
ENCODING 69
SWIDTH 312 0
DWIDTH 5 0
BBX 4 6 0 0
BITMAP
F0
80
E0
80
80
F0
ENDCHAR
STARTCHAR F
ENCODING 70
SWIDTH 312 0
DWIDTH 5 0
BBX 4 6 0 0
BITMAP
F0
80
F0
80
80
80
ENDCHAR
STARTCHAR G
ENCODING 71
SWIDTH 312 0
DWIDTH 5 0
BBX 4 6 0 0
BITMAP
60
90
80
B0
90
60
ENDCHAR
STARTCHAR H
ENCODING 72
SWIDTH 312 0
DWIDTH 5 0
BBX 4 6 0 0
BITMAP
90
90
F0
90
90
90
ENDCHAR
STARTCHAR I
ENCODING 73
SWIDTH 312 0
DWIDTH 5 0
BBX 3 6 0 0
BITMAP
E0
40
40
40
40
E0
ENDCHAR
STARTCHAR J
ENCODING 74
SWIDTH 312 0
DWIDTH 5 0
BBX 4 6 0 0
BITMAP
70
20
20
20
A0
40
ENDCHAR
STARTCHAR K
ENCODING 75
SWIDTH 312 0
DWIDTH 5 0
BBX 4 6 0 0
BITMAP
90
A0
C0
C0
A0
90
ENDCHAR
STARTCHAR L
ENCODING 76
SWIDTH 312 0
DWIDTH 5 0
BBX 4 6 0 0
BITMAP
80
80
80
80
80
F0
ENDCHAR
STARTCHAR M
ENCODING 77
SWIDTH 312 0
DWIDTH 5 0
BBX 5 6 -1 0
BITMAP
88
88
D8
A8
A8
A8
ENDCHAR
STARTCHAR N
ENCODING 78
SWIDTH 312 0
DWIDTH 5 0
BBX 4 6 0 0
BITMAP
E0
90
90
90
90
90
ENDCHAR
STARTCHAR O
ENCODING 79
SWIDTH 312 0
DWIDTH 5 0
BBX 4 6 0 0
BITMAP
60
90
90
90
90
60
ENDCHAR
STARTCHAR P
ENCODING 80
SWIDTH 312 0
DWIDTH 5 0
BBX 4 6 0 0
BITMAP
E0
90
90
E0
80
80
ENDCHAR
STARTCHAR Q
ENCODING 81
SWIDTH 312 0
DWIDTH 5 0
BBX 4 7 0 -1
BITMAP
60
90
90
90
90
60
30
ENDCHAR
STARTCHAR R
ENCODING 82
SWIDTH 312 0
DWIDTH 5 0
BBX 4 6 0 0
BITMAP
E0
90
90
E0
90
90
ENDCHAR
STARTCHAR S
ENCODING 83
SWIDTH 312 0
DWIDTH 5 0
BBX 4 6 0 0
BITMAP
70
80
60
10
90
60
ENDCHAR
STARTCHAR T
ENCODING 84
SWIDTH 312 0
DWIDTH 5 0
BBX 5 6 -1 0
BITMAP
F8
20
20
20
20
20
ENDCHAR
STARTCHAR U
ENCODING 85
SWIDTH 312 0
DWIDTH 5 0
BBX 4 6 0 0
BITMAP
90
90
90
90
90
70
ENDCHAR
STARTCHAR V
ENCODING 86
SWIDTH 312 0
DWIDTH 5 0
BBX 5 6 -1 0
BITMAP
88
88
50
50
20
20
ENDCHAR
STARTCHAR W
ENCODING 87
SWIDTH 312 0
DWIDTH 5 0
BBX 5 6 -1 0
BITMAP
88
A8
A8
A8
50
50
ENDCHAR
STARTCHAR X
ENCODING 88
SWIDTH 312 0
DWIDTH 5 0
BBX 5 6 -1 0
BITMAP
88
50
20
20
50
88
ENDCHAR
STARTCHAR Y
ENCODING 89
SWIDTH 312 0
DWIDTH 5 0
BBX 5 6 -1 0
BITMAP
88
88
50
20
20
20
ENDCHAR
STARTCHAR Z
ENCODING 90
SWIDTH 312 0
DWIDTH 5 0
BBX 4 6 0 0
BITMAP
F0
10
20
40
80
F0
ENDCHAR
STARTCHAR bracketleft
ENCODING 91
SWIDTH 312 0
DWIDTH 5 0
BBX 2 8 1 -1
BITMAP
C0
80
80
80
80
80
80
C0
ENDCHAR
STARTCHAR backslash
ENCODING 92
SWIDTH 312 0
DWIDTH 5 0
BBX 4 8 0 -1
BITMAP
80
80
40
40
20
20
10
10
ENDCHAR
STARTCHAR bracketright
ENCODING 93
SWIDTH 312 0
DWIDTH 5 0
BBX 2 8 1 -1
BITMAP
C0
40
40
40
40
40
40
C0
ENDCHAR
STARTCHAR asciicircum
ENCODING 94
SWIDTH 312 0
DWIDTH 5 0
BBX 3 2 1 5
BITMAP
40
A0
ENDCHAR
STARTCHAR underscore
ENCODING 95
SWIDTH 312 0
DWIDTH 5 0
BBX 4 1 0 0
BITMAP
F0
ENDCHAR
STARTCHAR grave
ENCODING 96
SWIDTH 312 0
DWIDTH 5 0
BBX 2 2 1 5
BITMAP
80
40
ENDCHAR
STARTCHAR a
ENCODING 97
SWIDTH 312 0
DWIDTH 5 0
BBX 5 5 -1 0
BITMAP
60
90
70
90
68
ENDCHAR
STARTCHAR b
ENCODING 98
SWIDTH 312 0
DWIDTH 5 0
BBX 4 6 0 0
BITMAP
80
E0
90
90
90
E0
ENDCHAR
STARTCHAR c
ENCODING 99
SWIDTH 312 0
DWIDTH 5 0
BBX 4 5 0 0
BITMAP
60
90
80
90
60
ENDCHAR
STARTCHAR d
ENCODING 100
SWIDTH 312 0
DWIDTH 5 0
BBX 4 6 0 0
BITMAP
10
70
90
90
90
70
ENDCHAR
STARTCHAR e
ENCODING 101
SWIDTH 312 0
DWIDTH 5 0
BBX 4 5 0 0
BITMAP
60
90
F0
80
70
ENDCHAR
STARTCHAR f
ENCODING 102
SWIDTH 312 0
DWIDTH 5 0
BBX 3 6 0 0
BITMAP
60
40
E0
40
40
40
ENDCHAR
STARTCHAR g
ENCODING 103
SWIDTH 312 0
DWIDTH 5 0
BBX 4 7 0 -2
BITMAP
70
A0
A0
40
E0
90
60
ENDCHAR
STARTCHAR h
ENCODING 104
SWIDTH 312 0
DWIDTH 5 0
BBX 4 6 0 0
BITMAP
80
80
E0
90
90
90
ENDCHAR
STARTCHAR i
ENCODING 105
SWIDTH 312 0
DWIDTH 5 0
BBX 1 6 1 0
BITMAP
80
00
80
80
80
80
ENDCHAR
STARTCHAR j
ENCODING 106
SWIDTH 312 0
DWIDTH 5 0
BBX 2 7 0 -1
BITMAP
40
00
40
40
40
40
80
ENDCHAR
STARTCHAR k
ENCODING 107
SWIDTH 312 0
DWIDTH 5 0
BBX 4 6 0 0
BITMAP
80
90
A0
C0
A0
90
ENDCHAR
STARTCHAR l
ENCODING 108
SWIDTH 312 0
DWIDTH 5 0
BBX 2 6 0 0
BITMAP
C0
40
40
40
40
40
ENDCHAR
STARTCHAR m
ENCODING 109
SWIDTH 312 0
DWIDTH 5 0
BBX 5 5 -1 0
BITMAP
D0
A8
A8
A8
A8
ENDCHAR
STARTCHAR n
ENCODING 110
SWIDTH 312 0
DWIDTH 5 0
BBX 4 5 0 0
BITMAP
E0
90
90
90
90
ENDCHAR
STARTCHAR o
ENCODING 111
SWIDTH 312 0
DWIDTH 5 0
BBX 4 5 0 0
BITMAP
60
90
90
90
60
ENDCHAR
STARTCHAR p
ENCODING 112
SWIDTH 312 0
DWIDTH 5 0
BBX 4 7 0 -2
BITMAP
E0
90
90
90
E0
80
80
ENDCHAR
STARTCHAR q
ENCODING 113
SWIDTH 312 0
DWIDTH 5 0
BBX 4 7 0 -2
BITMAP
70
90
90
90
70
10
10
ENDCHAR
STARTCHAR r
ENCODING 114
SWIDTH 312 0
DWIDTH 5 0
BBX 4 5 0 0
BITMAP
B0
C0
80
80
80
ENDCHAR
STARTCHAR s
ENCODING 115
SWIDTH 312 0
DWIDTH 5 0
BBX 4 5 0 0
BITMAP
70
80
60
10
E0
ENDCHAR
STARTCHAR t
ENCODING 116
SWIDTH 312 0
DWIDTH 5 0
BBX 3 6 0 0
BITMAP
40
40
E0
40
40
60
ENDCHAR
STARTCHAR u
ENCODING 117
SWIDTH 312 0
DWIDTH 5 0
BBX 4 5 0 0
BITMAP
90
90
90
90
70
ENDCHAR
STARTCHAR v
ENCODING 118
SWIDTH 312 0
DWIDTH 5 0
BBX 3 5 0 0
BITMAP
A0
A0
A0
40
40
ENDCHAR
STARTCHAR w
ENCODING 119
SWIDTH 312 0
DWIDTH 5 0
BBX 5 5 -1 0
BITMAP
A8
A8
A8
50
50
ENDCHAR
STARTCHAR x
ENCODING 120
SWIDTH 312 0
DWIDTH 5 0
BBX 3 5 0 0
BITMAP
A0
A0
40
A0
A0
ENDCHAR
STARTCHAR y
ENCODING 121
SWIDTH 312 0
DWIDTH 5 0
BBX 3 7 0 -2
BITMAP
A0
A0
A0
A0
40
40
80
ENDCHAR
STARTCHAR z
ENCODING 122
SWIDTH 312 0
DWIDTH 5 0
BBX 3 5 0 0
BITMAP
E0
20
40
80
E0
ENDCHAR
STARTCHAR braceleft
ENCODING 123
SWIDTH 312 0
DWIDTH 5 0
BBX 3 7 0 -1
BITMAP
20
40
40
80
40
40
20
ENDCHAR
STARTCHAR verticalbar
ENCODING 124
SWIDTH 312 0
DWIDTH 5 0
BBX 1 8 1 -1
BITMAP
80
80
80
80
80
80
80
80
ENDCHAR
STARTCHAR braceright
ENCODING 125
SWIDTH 312 0
DWIDTH 5 0
BBX 3 7 0 -1
BITMAP
80
40
40
20
40
40
80
ENDCHAR
STARTCHAR asciitilde
ENCODING 126
SWIDTH 312 0
DWIDTH 5 0
BBX 5 2 -1 2
BITMAP
48
B0
ENDCHAR
STARTCHAR char133
ENCODING 133
SWIDTH 312 0
DWIDTH 5 0
BBX 0 0 0 0
BITMAP
ENDCHAR
STARTCHAR char8230
ENCODING 8230
SWIDTH 312 0
DWIDTH 5 0
BBX 0 0 0 0
BITMAP
ENDCHAR
STARTCHAR arrowdblleft
ENCODING 8656
SWIDTH 312 0
DWIDTH 5 0
BBX 5 5 -1 0
BITMAP
20
78
C0
78
20
ENDCHAR
STARTCHAR arrowdblup
ENCODING 8657
SWIDTH 312 0
DWIDTH 5 0
BBX 0 0 0 0
BITMAP
ENDCHAR
STARTCHAR dblarrowright
ENCODING 8658
SWIDTH 312 0
DWIDTH 5 0
BBX 5 5 -1 0
BITMAP
20
F0
18
F0
20
ENDCHAR
STARTCHAR uni229E
ENCODING 8862
SWIDTH 312 0
DWIDTH 5 0
BBX 5 5 -1 0
BITMAP
F8
A8
F8
A8
F8
ENDCHAR
STARTCHAR uni229F
ENCODING 8863
SWIDTH 312 0
DWIDTH 5 0
BBX 5 5 -1 0
BITMAP
F8
88
F8
88
F8
ENDCHAR
STARTCHAR SF100000
ENCODING 9472
SWIDTH 312 0
DWIDTH 5 0
BBX 5 1 -1 3
BITMAP
F8
ENDCHAR
STARTCHAR SF110000
ENCODING 9474
SWIDTH 312 0
DWIDTH 5 0
BBX 1 10 1 -2
BITMAP
80
80
80
80
80
80
80
80
80
80
ENDCHAR
STARTCHAR SF010000
ENCODING 9484
SWIDTH 312 0
DWIDTH 5 0
BBX 3 6 1 -2
BITMAP
E0
80
80
80
80
80
ENDCHAR
STARTCHAR SF030000
ENCODING 9488
SWIDTH 312 0
DWIDTH 5 0
BBX 3 6 -1 -2
BITMAP
E0
20
20
20
20
20
ENDCHAR
STARTCHAR SF020000
ENCODING 9492
SWIDTH 312 0
DWIDTH 5 0
BBX 3 5 1 3
BITMAP
80
80
80
80
E0
ENDCHAR
STARTCHAR SF040000
ENCODING 9496
SWIDTH 312 0
DWIDTH 5 0
BBX 3 5 -1 3
BITMAP
20
20
20
20
E0
ENDCHAR
STARTCHAR SF080000
ENCODING 9500
SWIDTH 312 0
DWIDTH 5 0
BBX 3 10 1 -2
BITMAP
80
80
80
80
E0
80
80
80
80
80
ENDCHAR
STARTCHAR SF090000
ENCODING 9508
SWIDTH 312 0
DWIDTH 5 0
BBX 3 10 -1 -2
BITMAP
20
20
20
20
E0
20
20
20
20
20
ENDCHAR
STARTCHAR SF060000
ENCODING 9516
SWIDTH 312 0
DWIDTH 5 0
BBX 5 6 -1 -2
BITMAP
F8
20
20
20
20
20
ENDCHAR
STARTCHAR SF070000
ENCODING 9524
SWIDTH 312 0
DWIDTH 5 0
BBX 5 5 -1 3
BITMAP
20
20
20
20
F8
ENDCHAR
STARTCHAR SF050000
ENCODING 9532
SWIDTH 312 0
DWIDTH 5 0
BBX 5 10 -1 -2
BITMAP
20
20
20
20
F8
20
20
20
20
20
ENDCHAR
STARTCHAR uni2B80
ENCODING 11136
SWIDTH 312 0
DWIDTH 5 0
BBX 5 9 -1 -1
BITMAP
80
C0
E0
F0
F8
F0
E0
C0
80
ENDCHAR
STARTCHAR uni2B81
ENCODING 11137
SWIDTH 312 0
DWIDTH 5 0
BBX 5 9 -1 -1
BITMAP
80
40
20
10
08
10
20
40
80
ENDCHAR
STARTCHAR uni2B82
ENCODING 11138
SWIDTH 312 0
DWIDTH 5 0
BBX 5 9 -1 -1
BITMAP
08
18
38
78
F8
78
38
18
08
ENDCHAR
STARTCHAR uni2B83
ENCODING 11139
SWIDTH 312 0
DWIDTH 5 0
BBX 5 9 -1 -1
BITMAP
08
10
20
40
80
40
20
10
08
ENDCHAR
STARTCHAR uniE0B0
ENCODING 57520
SWIDTH 312 0
DWIDTH 5 0
BBX 5 10 -1 -2
BITMAP
80
C0
E0
F0
F8
F8
F0
E0
C0
80
ENDCHAR
STARTCHAR uniE0B2
ENCODING 57522
SWIDTH 312 0
DWIDTH 5 0
BBX 5 10 -1 -2
BITMAP
08
18
38
78
F8
F8
78
38
18
08
ENDCHAR
ENDFONT
